<svg height="511pt" viewBox="1 0 511.99897 511" width="511pt" xmlns="http://www.w3.org/2000/svg"><path d="m292.785156 108.136719c-51.046875-51.039063-134.101562-51.042969-185.144531 0-51.042969 51.046875-51.042969 134.105469 0 185.148437 24.726563 24.726563 57.601563 38.347656 92.570313 38.347656s67.847656-13.617187 92.574218-38.347656c24.726563-24.726562 38.347656-57.605468 38.347656-92.574218s-13.621093-67.847657-38.347656-92.574219zm-21.832031 163.320312c-18.894531 18.898438-44.019531 29.304688-70.742187 29.304688-26.722657 0-51.847657-10.40625-70.742188-29.304688-39.007812-39.007812-39.007812-102.480469 0-141.492187 19.507812-19.503906 45.121094-29.253906 70.742188-29.253906 25.617187 0 51.242187 9.753906 70.746093 29.253906 18.898438 18.898437 29.304688 44.023437 29.304688 70.746094 0 26.722656-10.40625 51.847656-29.308594 70.746093zm0 0"/><path d="m497.78125 423.660156-123.636719-123.632812c17.144531-29.910156 26.285157-63.910156 26.285157-99.3125 0-53.476563-20.832032-103.757813-58.648438-141.574219s-88.089844-58.640625-141.566406-58.640625c-53.480469 0-103.757813 20.828125-141.578125 58.644531-37.8125 37.8125-58.636719 88.089844-58.636719 141.570313 0 53.476562 20.824219 103.753906 58.636719 141.566406 37.820312 37.816406 88.097656 58.644531 141.578125 58.644531 35.402344 0 69.398437-9.136719 99.3125-26.28125l123.636718 123.632813c9.460938 9.464844 21.894532 14.195312 34.324219 14.195312 12.433594 0 24.867188-4.730468 34.332031-14.195312l5.957032-5.957032c9.171875-9.171874 14.222656-21.363281 14.222656-34.328124 0-12.96875-5.050781-25.160157-14.21875-34.332032zm-297.566406-53.605468c-45.234375 0-87.761719-17.617188-119.746094-49.601563s-49.597656-74.507813-49.597656-119.738281c0-45.234375 17.613281-87.757813 49.597656-119.738282 31.984375-31.988281 74.515625-49.605468 119.746094-49.605468 45.230468 0 87.75 17.613281 119.734375 49.597656 31.988281 31.988281 49.609375 74.515625 49.609375 119.746094 0 45.230468-17.617188 87.753906-49.609375 119.742187-31.980469 31.984375-74.503907 49.597657-119.734375 49.597657zm141.566406-27.769532c5.210938-5.210937 10.085938-10.664062 14.640625-16.324218l27.476563 27.476562-30.960938 30.960938-27.476562-27.476563c5.65625-4.554687 11.109374-9.425781 16.320312-14.636719zm134.167969 128.207032-5.960938 5.957031c-6.890625 6.894531-18.105469 6.890625-24.996093 0l-70.226563-70.222657 30.960937-30.960937 70.222657 70.222656c3.339843 3.339844 5.179687 7.78125 5.179687 12.5 0 4.722657-1.839844 9.164063-5.179687 12.503907zm0 0"/></svg>