<svg height="480pt" viewBox="0 0 480 480" width="480pt" xmlns="http://www.w3.org/2000/svg"><path d="m408 336h-336c-8.835938 0-16 7.164062-16 16v112c0 8.835938 7.164062 16 16 16h336c8.835938 0 16-7.164062 16-16v-112c0-8.835938-7.164062-16-16-16zm0 128h-336v-112h336zm0 0"/><path d="m120 432h224v16h-224zm0 0"/><path d="m360 432h32v16h-32zm0 0"/><path d="m88 432h16v16h-16zm0 0"/><path d="m120 400h16v16h-16zm0 0"/><path d="m88 400h16v16h-16zm0 0"/><path d="m152 400h16v16h-16zm0 0"/><path d="m184 400h16v16h-16zm0 0"/><path d="m216 400h16v16h-16zm0 0"/><path d="m248 400h16v16h-16zm0 0"/><path d="m280 400h16v16h-16zm0 0"/><path d="m312 400h16v16h-16zm0 0"/><path d="m344 400h16v16h-16zm0 0"/><path d="m376 400h16v16h-16zm0 0"/><path d="m120 368h16v16h-16zm0 0"/><path d="m88 368h16v16h-16zm0 0"/><path d="m152 368h16v16h-16zm0 0"/><path d="m184 368h16v16h-16zm0 0"/><path d="m216 368h16v16h-16zm0 0"/><path d="m248 368h16v16h-16zm0 0"/><path d="m280 368h16v16h-16zm0 0"/><path d="m312 368h16v16h-16zm0 0"/><path d="m344 368h16v16h-16zm0 0"/><path d="m376 368h16v16h-16zm0 0"/><path d="m32 288h184v8c0 13.253906 10.746094 24 24 24s24-10.746094 24-24v-8h184c4.417969 0 8-3.582031 8-8v-272c0-4.417969-3.582031-8-8-8h-192c-4.417969 0-8 3.582031-8 8v8h-16v-8c0-4.417969-3.582031-8-8-8h-192c-4.417969 0-8 3.582031-8 8v272c0 4.417969 3.582031 8 8 8zm232-272h176v256h-176zm-16 16v264c0 4.417969-3.582031 8-8 8s-8-3.582031-8-8v-264zm-208-16h176v256h-176zm0 0"/><path d="m208 312v-16h-192v-271.769531h-16v279.769531c0 4.417969 3.582031 8 8 8zm0 0"/><path d="m120 40h48v16h-48zm0 0"/><path d="m184 40h16v16h-16zm0 0"/><path d="m120 72h80v16h-80zm0 0"/><path d="m120 104h80v16h-80zm0 0"/><path d="m120 136h80v16h-80zm0 0"/><path d="m464 24.230469v271.769531h-192v16h200c4.417969 0 8-3.582031 8-8v-279.769531zm0 0"/><path d="m344 40h80v16h-80zm0 0"/><path d="m280 40h48v16h-48zm0 0"/><path d="m280 72h144v16h-144zm0 0"/><path d="m280 104h144v16h-144zm0 0"/><path d="m280 136h144v16h-144zm0 0"/><path d="m120 168h80v16h-80zm0 0"/><path d="m120 200h80v16h-80zm0 0"/><path d="m120 232h80v16h-80zm0 0"/><path d="m80 32c-13.253906 0-24 10.746094-24 24v152c0 1.019531.191406 2.027344.566406 2.976562l16 40c1.214844 3.042969 4.160156 5.039063 7.433594 5.039063s6.21875-1.996094 7.433594-5.039063l16-40c.375-.949218.566406-1.957031.566406-2.976562v-152c0-13.253906-10.746094-24-24-24zm0 16c4.417969 0 8 3.582031 8 8v8h-16v-8c0-4.417969 3.582031-8 8-8zm-8 144v-112h16v112zm8 34.464844-7.382812-18.464844h14.765624zm0 0"/><path d="m288 248h128c4.417969 0 8-3.582031 8-8v-64c0-4.417969-3.582031-8-8-8h-128c-4.417969 0-8 3.582031-8 8v64c0 4.417969 3.582031 8 8 8zm8-64h112v48h-112zm0 0"/><path d="m344 200h16v16h-16zm0 0"/><path d="m376 200h16v16h-16zm0 0"/><path d="m312 200h16v16h-16zm0 0"/><path d="m456 328h16v16h-16zm0 0"/><path d="m456 360h16v16h-16zm0 0"/><path d="m456 416h-16v16h24c4.417969 0 8-3.582031 8-8v-32h-16zm0 0"/><path d="m8 328h16v16h-16zm0 0"/><path d="m8 360h16v16h-16zm0 0"/><path d="m24 392h-16v32c0 4.417969 3.582031 8 8 8h24v-16h-16zm0 0"/></svg>