<svg height="480pt" viewBox="0 -44 480 480" width="480pt" xmlns="http://www.w3.org/2000/svg"><path d="m104 16h144v240h-56v16h56v8c0 13.253906 10.746094 24 24 24s24-10.746094 24-24v-8h152c4.417969 0 8-3.582031 8-8v-256c0-4.417969-3.582031-8-8-8h-160c-4.417969 0-8 3.582031-8 8v8h-16v-8c0-4.417969-3.582031-8-8-8h-160c-4.417969 0-8 3.582031-8 8v160h16zm192 0h144v240h-144zm-16 16v248c0 4.417969-3.582031 8-8 8s-8-3.582031-8-8v-248zm0 0"/><path d="m192 280h48v16h-48zm0 0"/><path d="m64 24.230469h16v143.769531h-16zm0 0"/><path d="m120 64h32v16h-32zm0 0"/><path d="m168 64h64v16h-64zm0 0"/><path d="m120 96h112v16h-112zm0 0"/><path d="m120 128h112v16h-112zm0 0"/><path d="m464 24.230469v255.769531h-160v16h168c4.417969 0 8-3.582031 8-8v-263.769531zm0 0"/><path d="m376 64h48v16h-48zm0 0"/><path d="m312 64h48v16h-48zm0 0"/><path d="m312 96h112v16h-112zm0 0"/><path d="m312 128h112v16h-112zm0 0"/><path d="m312 160h112v16h-112zm0 0"/><path d="m312 192h112v16h-112zm0 0"/><path d="m176 320v-112c0-8.835938-7.164062-16-16-16h-32v-8h-16v8h-48v-8h-16v8h-32c-8.835938 0-16 7.164062-16 16v112c0 8.835938 7.164062 16 16 16h144c8.835938 0 16-7.164062 16-16zm-128-112v8h16v-8h48v8h16v-8h32v16h-144v-16zm-32 32h144v80h-144zm0 0"/><path d="m32 256h16v16h-16zm0 0"/><path d="m64 256h16v16h-16zm0 0"/><path d="m96 256h16v16h-16zm0 0"/><path d="m128 256h16v16h-16zm0 0"/><path d="m32 288h16v16h-16zm0 0"/><path d="m64 288h16v16h-16zm0 0"/><path d="m96 288h16v16h-16zm0 0"/><path d="m128 288h16v16h-16zm0 0"/><path d="m368 376h-272v-24h-16v32c0 4.417969 3.582031 8 8 8h288c4.417969 0 8-3.582031 8-8v-40h-16zm0 0"/><path d="m368 312h16v16h-16zm0 0"/><path d="m264 344h16v16h-16zm0 0"/><path d="m296 344h16v16h-16zm0 0"/><path d="m232 344h16v16h-16zm0 0"/><path d="m144 160h88v16h-88zm0 0"/><path d="m192 192h40v16h-40zm0 0"/></svg>